<svg id="Component_27_1" data-name="Component 27 – 1" xmlns="http://www.w3.org/2000/svg" width="35.333" height="38.867" viewBox="0 0 35.333 38.867">
  <path id="Path_4" data-name="Path 4" d="M33.8,4.533H32.033V1H28.5V4.533H10.833V1H7.3V4.533H5.533A3.544,3.544,0,0,0,2,8.067V36.333a3.544,3.544,0,0,0,3.533,3.533H33.8a3.544,3.544,0,0,0,3.533-3.533V8.067A3.544,3.544,0,0,0,33.8,4.533Zm0,31.8H5.533V13.367H33.8Z" transform="translate(-2 -1)" fill="#f79e1b"/>
  <path id="Path_7" data-name="Path 7" d="M12.586,17.618l6.542,3.815-1.736-7.19,5.78-4.838-7.611-.624L12.586,2,9.611,8.781,2,9.405l5.78,4.838-1.736,7.19Z" transform="translate(5.081 12.433)" fill="#f79e1b"/>
</svg>
