<svg xmlns="http://www.w3.org/2000/svg" width="41.5" height="37.94" viewBox="0 0 41.5 37.94">
  <path id="Path_12" data-name="Path 12" d="M31.578,15.973,23.316,2.86a1.841,1.841,0,0,0-1.566-.84,1.815,1.815,0,0,0-1.566.86L11.922,15.973H2.886a1.951,1.951,0,0,0-1.886,2,1.777,1.777,0,0,0,.075.54l4.791,18.53A3.793,3.793,0,0,0,9.489,39.96H34.011a3.831,3.831,0,0,0,3.641-2.918l4.791-18.53.057-.54a1.951,1.951,0,0,0-1.886-2Zm-15.487,0,5.659-8.8,5.659,8.8ZM21.75,31.964a4,4,0,0,1,0-8,4,4,0,0,1,0,8Z" transform="translate(-1 -2.02)" fill="#fff"/>
</svg>
